<svg width="32" height="32" viewBox="0 0 512 512" fill="none" xmlns="http://www.w3.org/2000/svg">
  <defs>
    <linearGradient id="logoGradient" x1="0%" y1="0%" x2="100%" y2="100%">
      <stop offset="0%" style="stop-color:#8b5cf6"/>
      <stop offset="100%" style="stop-color:#22d3ee"/>
    </linearGradient>
  </defs>
  <rect x="32" y="32" width="448" height="448" rx="100" fill="url(#logoGradient)"/>
  <path d="M160 128 L352 128 C369.673 128 384 142.327 384 160 C384 177.673 369.673 192 352 192 L224 192 L224 232 L304 232 C321.673 232 336 246.327 336 264 C336 281.673 321.673 296 304 296 L224 296 L224 352 C224 369.673 209.673 384 192 384 C174.327 384 160 369.673 160 352 L160 128 Z" fill="white"/>
  <circle cx="384" cy="320" r="32" fill="white"/>
  <circle cx="320" cy="384" r="24" fill="white" opacity="0.85"/>
  <path d="M224 320 Q 280 340 320 360" stroke="white" stroke-width="12" stroke-linecap="round" fill="none" opacity="0.7"/>
</svg>